<svg width="892" height="572" viewBox="0 0 892 572" fill="none" xmlns="http://www.w3.org/2000/svg">
<path d="M799 572H93C41.6 572 0 530.4 0 479V93C0 41.6 41.6 0 93 0H799C850.4 0 892 41.6 892 93V479C892 530.4 850.4 572 799 572Z" fill="black"/>
<path d="M286.9 364.4L363.4 186.1H317.4H306.9L270.5 279.6L270.3 279.4L253.6 321.1L249.4 293.7C240 260.8 209.7 224.6 176.2 207L176.7 208.9C176.2 208.6 175.7 208.3 175.1 208L222.2 383.5H278.7L279.2 382.4H279.8L286.9 364.4Z" fill="white"/>
<path d="M749.3 302.4L723.1 185H695H682.4C669.8 185 660.4 186.1 655.2 199.3L576.7 382.5H584H633.2L643.7 349.6H710.6L716.9 382.5H767.1L749.3 302.4ZM686.6 238.8L689.7 257.4C689.7 257.4 699.5 303.8 702 316.6H658.3C662.5 305.6 679.2 258.5 679.2 258.5C679.2 258.5 683.4 246.5 686.6 238.8Z" fill="white"/>
<path d="M392.7 185.1H383.2L349.8 382.5H403.1L435.5 185.1H392.7Z" fill="white"/>
<path d="M584.1 317.8C584.1 294.8 570.5 277.2 539.1 263C520.3 253.1 508.8 247.6 508.8 237.8C508.8 229 518.2 220.2 539.1 220.2C556.9 220.2 569.4 223.5 578.8 227.9L584 230.1L592.4 187.3C581.9 182.9 565.2 178.5 544.3 178.5C492 178.5 454.3 205.9 454.3 245.4C454.3 275 480.5 290.4 501.4 300.2C515.8 307 523.2 312.2 526.5 317.7L523.4 314.5C525.2 316.4 526.6 318 527.5 319.7C528.3 321.6 528.6 323.5 528.6 325.5C528.6 338.7 511.9 345.2 497.2 345.2C476.3 345.2 464.8 341.9 447 334.2L439.7 330.9L432.4 375.9C432.5 375.9 432.5 375.9 432.6 376L432.4 377C445 382.5 468 388 492 388C525.5 388 552.7 378.1 568.4 360.6L567.8 360C578.3 348.7 584.1 334.4 584.1 317.8Z" fill="white"/>
<path d="M247.8 292.5C248 292.9 248.1 293.3 248.3 293.7L246.4 285.3L229.5 201.5C226.4 188.3 216.9 185 205.4 185H108.1L141.5 195.7C182.7 212.2 216.9 238.7 236.4 269.6C241.2 277.6 245.2 286 248.3 294.6L247.8 292.5Z" fill="#F79510"/>
</svg>
